<svg id="Calque_1" data-name="Calque 1" xmlns="http://www.w3.org/2000/svg" viewBox="0 0 137.66 45.4"><defs><style>.cls-1{fill:#fff;}</style></defs><path class="cls-1" d="M115.44,0H22.22A22.22,22.22,0,0,0,0,22.22v1A22.22,22.22,0,0,0,22.22,45.4h93.22a22.22,22.22,0,0,0,22.22-22.22v-1A22.22,22.22,0,0,0,115.44,0ZM15.4,20a5.6,5.6,0,0,0,2.31,1l3.95.89A9.08,9.08,0,0,1,26.17,24a4.94,4.94,0,0,1,1.37,3.61,5.9,5.9,0,0,1-1.1,3.58,6.68,6.68,0,0,1-3.05,2.28,12,12,0,0,1-4.49.79,14.78,14.78,0,0,1-4.06-.53,12.49,12.49,0,0,1-3.29-1.46,9.52,9.52,0,0,1-2.41-2.16l2.5-3a8.36,8.36,0,0,0,1.83,1.83A9.13,9.13,0,0,0,16,30.19a9.23,9.23,0,0,0,2.94.46,7.13,7.13,0,0,0,2.2-.3,3,3,0,0,0,1.39-.87A2,2,0,0,0,23,28.12a2.09,2.09,0,0,0-.55-1.42,4,4,0,0,0-2.09-.93l-4.3-1a13.14,13.14,0,0,1-3.19-1.17,5.27,5.27,0,0,1-2-1.87,5.13,5.13,0,0,1-.69-2.71,5.86,5.86,0,0,1,1-3.4,6.88,6.88,0,0,1,3-2.39,11.18,11.18,0,0,1,4.67-.89,12.06,12.06,0,0,1,5.08,1,10,10,0,0,1,3.72,2.95l-2.47,2.86a8.86,8.86,0,0,0-2.88-2.46A8,8,0,0,0,18.64,16a6,6,0,0,0-2.23.35,2.75,2.75,0,0,0-1.28.93,2.2,2.2,0,0,0-.41,1.29A1.89,1.89,0,0,0,15.4,20ZM48.67,33.92H44.24V25.1H35v8.82H30.58V12.68H35V21.5h9.23V12.68h4.43ZM72,16.28H58.47v5.26H72v3.39H58.47v5.39H72v3.55H54.05V12.73H72ZM95.65,33.87H91.3V30.32H77.78V24.93H91.3V21.54H77.78V16.28H91.3V12.73h4.35Zm13.51,0h-4.43L98.2,23.3l6.53-10.61h4.43L102.63,23.3ZM116.32,20a5.6,5.6,0,0,0,2.31,1l4,.89A9.08,9.08,0,0,1,127.09,24a4.94,4.94,0,0,1,1.37,3.61,6,6,0,0,1-1.09,3.58,6.79,6.79,0,0,1-3.05,2.28,12.12,12.12,0,0,1-4.5.79,14.78,14.78,0,0,1-4.06-.53,12.49,12.49,0,0,1-3.29-1.46,9.52,9.52,0,0,1-2.41-2.16l2.5-3a8.82,8.82,0,0,0,1.83,1.83,9.13,9.13,0,0,0,2.49,1.27,9.23,9.23,0,0,0,2.94.46,7.09,7.09,0,0,0,2.2-.3,3.09,3.09,0,0,0,1.4-.87,2,2,0,0,0,.48-1.36,2,2,0,0,0-.55-1.42,4,4,0,0,0-2.08-.93l-4.31-1a13.3,13.3,0,0,1-3.19-1.17,5.27,5.27,0,0,1-2-1.87,5.13,5.13,0,0,1-.69-2.71,5.93,5.93,0,0,1,1-3.4,6.94,6.94,0,0,1,3-2.39,11.21,11.21,0,0,1,4.67-.89,12.06,12.06,0,0,1,5.08,1,10,10,0,0,1,3.72,2.95l-2.47,2.86a8.93,8.93,0,0,0-2.87-2.46,8,8,0,0,0-3.62-.78,6,6,0,0,0-2.23.35,2.75,2.75,0,0,0-1.28.93,2.19,2.19,0,0,0-.4,1.29A1.88,1.88,0,0,0,116.32,20Z"/></svg>