<svg id="Calque_1" data-name="Calque 1" xmlns="http://www.w3.org/2000/svg" viewBox="0 0 119.38 21.83"><defs><style>.cls-1{fill:#dcd251;}</style></defs><path class="cls-1" d="M25.62.3V21.54H21.19V.3Z"/><path class="cls-1" d="M39.28.3V21.54H34.85V.3Z"/><polygon class="cls-1" points="62.59 3.9 62.59 0.34 44.65 0.34 44.65 21.49 62.59 21.49 62.59 17.93 49.07 17.93 49.07 12.55 62.59 12.55 62.59 9.15 49.07 9.15 49.07 3.9 62.59 3.9"/><rect class="cls-1" x="21.65" y="9.12" width="13.88" height="3.6"/><polygon class="cls-1" points="99.77 0.3 93.24 10.92 99.77 21.48 95.34 21.48 88.81 10.92 95.34 0.3 99.77 0.3"/><path class="cls-1" d="M110.33,0a12,12,0,0,1,5.07,1,9.85,9.85,0,0,1,3.73,3l-2.47,2.86a8.74,8.74,0,0,0-2.88-2.46,8,8,0,0,0-3.61-.79,6,6,0,0,0-2.23.36,2.7,2.7,0,0,0-1.29.93,2.23,2.23,0,0,0-.4,1.28,1.86,1.86,0,0,0,.68,1.46,5.35,5.35,0,0,0,2.31,1l4,.9a8.91,8.91,0,0,1,4.51,2.11,4.93,4.93,0,0,1,1.36,3.61A5.9,5.9,0,0,1,118,18.77a6.88,6.88,0,0,1-3,2.28,12,12,0,0,1-4.49.78,14.53,14.53,0,0,1-4.07-.53,12.32,12.32,0,0,1-3.29-1.46,9.61,9.61,0,0,1-2.4-2.15l2.5-3A8.36,8.36,0,0,0,105,16.54a9.11,9.11,0,0,0,2.49,1.26,9.24,9.24,0,0,0,2.94.47,7.13,7.13,0,0,0,2.2-.3A3.13,3.13,0,0,0,114,17.1a2,2,0,0,0,.48-1.37,2.08,2.08,0,0,0-.54-1.41,3.84,3.84,0,0,0-2.09-.93l-4.3-1a13,13,0,0,1-3.2-1.18,5.21,5.21,0,0,1-2-1.86,5.13,5.13,0,0,1-.69-2.71,5.86,5.86,0,0,1,1-3.4,6.91,6.91,0,0,1,3-2.4A11.35,11.35,0,0,1,110.33,0Z"/><path class="cls-1" d="M9.41,0a12,12,0,0,1,5.07,1,9.85,9.85,0,0,1,3.73,3L15.73,6.81a8.61,8.61,0,0,0-2.87-2.46,8,8,0,0,0-3.61-.79A6,6,0,0,0,7,3.92a2.7,2.7,0,0,0-1.29.93,2.16,2.16,0,0,0-.4,1.28A1.88,1.88,0,0,0,6,7.59a5.34,5.34,0,0,0,2.32,1l3.95.9a9,9,0,0,1,4.51,2.11,4.93,4.93,0,0,1,1.36,3.61,5.9,5.9,0,0,1-1.09,3.58A6.88,6.88,0,0,1,14,21.05a12.07,12.07,0,0,1-4.49.78,14.48,14.48,0,0,1-4.07-.53,12.32,12.32,0,0,1-3.29-1.46A9.84,9.84,0,0,1-.26,17.69l2.51-3a8.36,8.36,0,0,0,1.83,1.83A9.11,9.11,0,0,0,6.57,17.8a9.24,9.24,0,0,0,2.94.47A7.07,7.07,0,0,0,11.7,18a3.17,3.17,0,0,0,1.4-.87,2,2,0,0,0,.48-1.37A2.08,2.08,0,0,0,13,14.32,3.84,3.84,0,0,0,11,13.39l-4.3-1a13,13,0,0,1-3.2-1.18,5.14,5.14,0,0,1-2-1.86A5.13,5.13,0,0,1,.74,6.68a5.86,5.86,0,0,1,1-3.4,6.91,6.91,0,0,1,3-2.4A11.35,11.35,0,0,1,9.41,0Z"/><polygon class="cls-1" points="81.91 0.34 81.91 3.9 68.39 3.9 68.39 9.15 81.91 9.15 81.91 12.55 68.39 12.55 68.39 17.93 81.91 17.93 81.91 21.49 86.25 21.49 86.25 0.34 81.91 0.34"/></svg>