<svg id="Calque_1" data-name="Calque 1" xmlns="http://www.w3.org/2000/svg" viewBox="0 0 119.38 21.83"><defs><style>.cls-1{fill:#fff;}</style></defs><path class="cls-1" d="M25.88.3V21.54H21.44V.3Z"/><path class="cls-1" d="M39.54.3V21.54H35.11V.3Z"/><polygon class="cls-1" points="62.85 3.9 62.85 0.34 44.91 0.34 44.91 21.49 62.85 21.49 62.85 17.93 49.33 17.93 49.33 12.55 62.85 12.55 62.85 9.15 49.33 9.15 49.33 3.9 62.85 3.9"/><rect class="cls-1" x="21.91" y="9.12" width="13.88" height="3.6"/><polygon class="cls-1" points="100.03 0.3 93.49 10.92 100.03 21.48 95.59 21.48 89.06 10.92 95.59 0.3 100.03 0.3"/><path class="cls-1" d="M110.59,0a12,12,0,0,1,5.07,1,9.75,9.75,0,0,1,3.72,3l-2.47,2.86A8.71,8.71,0,0,0,114,4.35a8,8,0,0,0-3.61-.79,6,6,0,0,0-2.24.36,2.72,2.72,0,0,0-1.28.93,2.16,2.16,0,0,0-.4,1.28,1.85,1.85,0,0,0,.67,1.46,5.34,5.34,0,0,0,2.32,1l3.94.9A9,9,0,0,1,118,11.58a4.93,4.93,0,0,1,1.36,3.61,5.9,5.9,0,0,1-1.09,3.58,6.94,6.94,0,0,1-3,2.28,12.13,12.13,0,0,1-4.5.78,14.46,14.46,0,0,1-4.06-.53,12.18,12.18,0,0,1-3.29-1.46,9.66,9.66,0,0,1-2.41-2.15l2.51-3a8.36,8.36,0,0,0,1.83,1.83,8.83,8.83,0,0,0,2.49,1.26,9.22,9.22,0,0,0,2.93.47,7.09,7.09,0,0,0,2.2-.3,3.17,3.17,0,0,0,1.4-.87,2.14,2.14,0,0,0-.07-2.78,3.77,3.77,0,0,0-2.08-.93l-4.31-1a12.88,12.88,0,0,1-3.19-1.18,5.14,5.14,0,0,1-2-1.86,5.13,5.13,0,0,1-.69-2.71,5.92,5.92,0,0,1,1-3.4,7,7,0,0,1,3-2.4A11.43,11.43,0,0,1,110.59,0Z"/><path class="cls-1" d="M9.67,0a12,12,0,0,1,5.07,1,9.9,9.9,0,0,1,3.72,3L16,6.81a8.81,8.81,0,0,0-2.87-2.46A8,8,0,0,0,9.5,3.56a6,6,0,0,0-2.23.36A2.67,2.67,0,0,0,6,4.85a2.16,2.16,0,0,0-.4,1.28,1.85,1.85,0,0,0,.67,1.46,5.35,5.35,0,0,0,2.31,1l3.95.9A8.91,8.91,0,0,1,17,11.58a4.94,4.94,0,0,1,1.37,3.61,6,6,0,0,1-1.09,3.58,6.94,6.94,0,0,1-3,2.28,12.13,12.13,0,0,1-4.5.78A14.41,14.41,0,0,1,5.7,21.3a12.18,12.18,0,0,1-3.29-1.46A9.49,9.49,0,0,1,0,17.69l2.5-3a8.82,8.82,0,0,0,1.83,1.83A9.11,9.11,0,0,0,6.82,17.8a9.24,9.24,0,0,0,2.94.47A7.09,7.09,0,0,0,12,18a3.17,3.17,0,0,0,1.4-.87,2.14,2.14,0,0,0-.07-2.78,3.81,3.81,0,0,0-2.08-.93l-4.31-1a12.88,12.88,0,0,1-3.19-1.18,5.14,5.14,0,0,1-2-1.86A5.13,5.13,0,0,1,1,6.68a5.92,5.92,0,0,1,1-3.4A7,7,0,0,1,5,.88,11.39,11.39,0,0,1,9.67,0Z"/><polygon class="cls-1" points="82.17 0.34 82.17 3.9 68.65 3.9 68.65 9.15 82.17 9.15 82.17 12.55 68.65 12.55 68.65 17.93 82.17 17.93 82.17 21.49 86.51 21.49 86.51 0.34 82.17 0.34"/></svg>